%
M48
M72
T01C0.03937
%
T01
X21000Y21000
X21000Y31000
X31000Y31000
X31000Y21000
X41000Y21000
X41000Y31000
X51000Y31000
X51000Y21000
X61000Y21000
X61000Y31000
X71000Y31000
X71000Y21000
X81000Y21000
X81000Y31000
X91000Y31000
X91000Y21000
X91000Y71000
X81000Y71000
X71000Y71000
X61000Y71000
X51000Y71000
X41000Y71000
X41000Y81000
X31000Y71000
X21000Y71000
X21000Y111000
X31000Y111000
X41000Y111000
X61000Y101000
X71000Y101000
M30
